<mxfile host="Electron" agent="Mozilla/5.0 (Windows NT 10.0; Win64; x64) AppleWebKit/537.36 (KHTML, like Gecko) draw.io/26.2.2 Chrome/134.0.6998.178 Electron/35.1.2 Safari/537.36" version="26.2.2">
  <diagram name="Pagina-1" id="ixQAQ2JgZzsNw3_sM7Nu">
    <mxGraphModel dx="816" dy="481" grid="1" gridSize="10" guides="1" tooltips="1" connect="1" arrows="1" fold="1" page="1" pageScale="1" pageWidth="827" pageHeight="1169" math="1" shadow="0">
      <root>
        <mxCell id="0" />
        <mxCell id="1" parent="0" />
        <mxCell id="cQ3ANYoLkP0b8G8Ry9qt-8" value="" style="endArrow=classic;html=1;rounded=0;strokeColor=#000000;fontColor=#000000;" parent="1" edge="1">
          <mxGeometry width="50" height="50" relative="1" as="geometry">
            <mxPoint x="399.92" y="270" as="sourcePoint" />
            <mxPoint x="399.92" y="350" as="targetPoint" />
          </mxGeometry>
        </mxCell>
        <mxCell id="cQ3ANYoLkP0b8G8Ry9qt-10" value="$$\mu$$" style="text;html=1;align=center;verticalAlign=middle;resizable=0;points=[];autosize=1;strokeColor=none;fillColor=none;fontColor=#009900;" parent="1" vertex="1">
          <mxGeometry x="379.07" y="250" width="70" height="30" as="geometry" />
        </mxCell>
        <mxCell id="cQ3ANYoLkP0b8G8Ry9qt-9" value="" style="ellipse;whiteSpace=wrap;html=1;strokeColor=none;fillColor=#009900;" parent="1" vertex="1">
          <mxGeometry x="397.5" y="270" width="5" height="5" as="geometry" />
        </mxCell>
        <mxCell id="cQ3ANYoLkP0b8G8Ry9qt-11" value="" style="endArrow=classic;startArrow=classic;html=1;rounded=0;strokeColor=#000000;fontColor=#000000;" parent="1" edge="1">
          <mxGeometry width="50" height="50" relative="1" as="geometry">
            <mxPoint x="310" y="384" as="sourcePoint" />
            <mxPoint x="310" y="253" as="targetPoint" />
          </mxGeometry>
        </mxCell>
        <mxCell id="cQ3ANYoLkP0b8G8Ry9qt-12" value="$$\approx 20 \;\mathrm{km}$$" style="text;html=1;align=center;verticalAlign=middle;resizable=0;points=[];autosize=1;strokeColor=none;fillColor=none;fontColor=#000000;" parent="1" vertex="1">
          <mxGeometry x="180" y="300" width="180" height="30" as="geometry" />
        </mxCell>
        <mxCell id="cQ3ANYoLkP0b8G8Ry9qt-13" value="$$\mathbf{v}$$" style="text;html=1;align=center;verticalAlign=middle;resizable=0;points=[];autosize=1;strokeColor=none;fillColor=none;fontColor=#000000;" parent="1" vertex="1">
          <mxGeometry x="364.07" y="290" width="100" height="30" as="geometry" />
        </mxCell>
        <mxCell id="JnrRmFNr6TNrJFiEr1XC-1" value="" style="endArrow=none;html=1;rounded=0;curved=1;strokeColor=#3399FF;" parent="1" edge="1">
          <mxGeometry width="50" height="50" relative="1" as="geometry">
            <mxPoint x="200" y="259.06" as="sourcePoint" />
            <mxPoint x="600" y="259" as="targetPoint" />
            <Array as="points">
              <mxPoint x="400" y="230" />
            </Array>
          </mxGeometry>
        </mxCell>
        <mxCell id="JnrRmFNr6TNrJFiEr1XC-2" value="" style="endArrow=none;html=1;rounded=0;curved=1;" parent="1" edge="1">
          <mxGeometry width="50" height="50" relative="1" as="geometry">
            <mxPoint x="200" y="399.06" as="sourcePoint" />
            <mxPoint x="600" y="399" as="targetPoint" />
            <Array as="points">
              <mxPoint x="400" y="370" />
            </Array>
          </mxGeometry>
        </mxCell>
        <mxCell id="JnrRmFNr6TNrJFiEr1XC-3" value="$$\text{Atmosphere}$$" style="text;html=1;align=center;verticalAlign=middle;resizable=0;points=[];autosize=1;strokeColor=none;fillColor=none;fontColor=#3399FF;" parent="1" vertex="1">
          <mxGeometry x="160" y="220" width="150" height="30" as="geometry" />
        </mxCell>
        <mxCell id="JnrRmFNr6TNrJFiEr1XC-4" value="$$\text{Ground}$$" style="text;html=1;align=center;verticalAlign=middle;resizable=0;points=[];autosize=1;strokeColor=none;fillColor=none;" parent="1" vertex="1">
          <mxGeometry x="165" y="400" width="120" height="30" as="geometry" />
        </mxCell>
      </root>
    </mxGraphModel>
  </diagram>
</mxfile>
